<svg width="21" height="20" viewBox="0 0 21 20" fill="none" xmlns="http://www.w3.org/2000/svg">
<path d="M17.0492 3.27895C16.7848 2.9851 16.7848 2.50994 17.0492 2.21922C17.3136 1.92849 17.7412 1.92537 18.0028 2.21922L19.8031 4.2199C19.9297 4.36057 20 4.55126 20 4.75133C20 4.9514 19.9297 5.14209 19.8031 5.28276L18.0028 7.28345C17.7384 7.5773 17.3108 7.5773 17.0492 7.28345C16.7876 6.9896 16.7848 6.51443 17.0492 6.22371L17.6962 5.50471L12.8017 5.49846C12.4276 5.49846 12.1266 5.16397 12.1266 4.74821C12.1266 4.33244 12.4276 3.99795 12.8017 3.99795H17.699L17.0492 3.27895ZM4.95359 13.7825L4.30661 14.5015H9.20112C9.57525 14.5015 9.87623 14.836 9.87623 15.2518C9.87623 15.6676 9.57525 16.002 9.20112 16.002H4.3038L4.95077 16.721C5.21519 17.0149 5.21519 17.4901 4.95077 17.7808C4.68636 18.0715 4.25879 18.0746 3.99719 17.7808L2.19691 15.7832C2.07032 15.6426 2 15.4519 2 15.2518C2 15.0517 2.07032 14.861 2.19691 14.7204L3.99719 12.7197C4.2616 12.4258 4.68917 12.4258 4.95077 12.7197C5.21238 13.0135 5.21519 13.4887 4.95077 13.7794L4.95359 13.7825ZM4.70042 3.99795H11.5049C11.4008 4.22303 11.339 4.47624 11.339 4.74821C11.339 5.64539 11.9944 6.37376 12.8017 6.37376H16.1041C15.9916 6.90519 16.121 7.48352 16.4923 7.89928C17.0633 8.53387 17.9887 8.53387 18.5598 7.89928L19.1027 7.29595V14.0014C19.1027 15.1049 18.2954 16.002 17.3024 16.002H10.4979C10.602 15.777 10.6639 15.5238 10.6639 15.2518C10.6639 14.3546 10.0084 13.6262 9.20112 13.6262H5.89873C6.01125 13.0948 5.88186 12.5165 5.51055 12.1007C4.93952 11.4661 4.01406 11.4661 3.44304 12.1007L2.90014 12.704V5.99863C2.90014 4.89513 3.70745 3.99795 4.70042 3.99795ZM6.5007 5.99863H4.70042V7.99932C5.69339 7.99932 6.5007 7.10213 6.5007 5.99863ZM17.3024 12.0007C16.3094 12.0007 15.5021 12.8979 15.5021 14.0014H17.3024V12.0007ZM11.0014 13.001C11.7176 13.001 12.4045 12.6848 12.9109 12.122C13.4173 11.5592 13.7018 10.7959 13.7018 10C13.7018 9.20408 13.4173 8.44076 12.9109 7.87795C12.4045 7.31515 11.7176 6.99897 11.0014 6.99897C10.2852 6.99897 9.59835 7.31515 9.09192 7.87795C8.58549 8.44076 8.30098 9.20408 8.30098 10C8.30098 10.7959 8.58549 11.5592 9.09192 12.122C9.59835 12.6848 10.2852 13.001 11.0014 13.001Z" fill="#492B7C"/>
</svg>
