<svg width="20" height="20" viewBox="0 0 20 20" fill="none" xmlns="http://www.w3.org/2000/svg">
<path d="M7.86172 4.72812L8.13516 5.20391C8.21172 5.33516 8.25 5.48555 8.25 5.63867V6.7707C8.25 6.87734 8.29375 6.98125 8.36758 7.05508C8.53711 7.22461 8.81875 7.21094 8.96914 7.02227L9.34102 6.55742C9.46953 6.39609 9.69375 6.34688 9.87695 6.43984L10.2926 6.64766C10.3855 6.69414 10.4895 6.71875 10.5934 6.71875C10.7711 6.71875 10.9434 6.64766 11.0691 6.52188L11.1758 6.41523C11.2551 6.33594 11.3754 6.3168 11.4766 6.36602L12.275 6.76523C12.4883 6.87187 12.6195 7.08789 12.6195 7.32578C12.6195 7.61289 12.4254 7.86172 12.1465 7.93281L11.1785 8.17344C10.9762 8.22266 10.7656 8.21445 10.5687 8.14883L9.69375 7.85625C9.60352 7.82617 9.51055 7.80977 9.41484 7.80977C9.22344 7.80977 9.0375 7.87266 8.88438 7.9875L7.8125 8.79688C7.53633 9.00469 7.375 9.32734 7.375 9.67188V10.4375C7.375 11.1621 7.96289 11.75 8.6875 11.75H9.5625C9.80312 11.75 10 11.9469 10 12.1875V13.5C10 13.984 10.391 14.375 10.875 14.375C11.1512 14.375 11.4109 14.2465 11.575 14.025L12.275 13.0926C12.502 12.7891 12.625 12.4199 12.625 12.0426V11.7117C12.625 11.6051 12.6961 11.5121 12.8 11.4875L12.9449 11.452C13.2703 11.3699 13.5 11.0773 13.5 10.741C13.5 10.5469 13.4234 10.3609 13.2867 10.2242L12.3707 9.3082C12.2695 9.20703 12.2695 9.04297 12.3707 8.9418C12.5266 8.78594 12.7563 8.73125 12.9668 8.80234L13.3523 8.93086C13.6887 9.04297 14.0551 8.88984 14.2137 8.57539C14.3094 8.38398 14.5199 8.28008 14.7305 8.32383L15.4797 8.47422C14.8125 6.07344 12.6113 4.3125 10 4.3125C9.24258 4.3125 8.52344 4.46016 7.86172 4.72812ZM17 10C17 13.8664 13.8664 17 10 17C6.13359 17 3 13.8664 3 10C3 6.13359 6.13359 3 10 3C13.8664 3 17 6.13359 17 10Z" fill="#492B7C"/>
</svg>
