<svg width="20" height="20" viewBox="0 0 20 20" fill="none" xmlns="http://www.w3.org/2000/svg">
<path d="M17 5.1875C17 5.67996 16.609 6.13359 15.95 6.5C15.1543 6.94023 13.9703 7.25195 12.6059 7.34492C12.5074 7.29844 12.4035 7.25195 12.2996 7.2082C11.2195 6.75703 9.78672 6.5 8.25 6.5C8.02305 6.5 7.80156 6.50547 7.58008 6.51641L7.55 6.5C6.89102 6.13359 6.5 5.67996 6.5 5.1875C6.5 3.97945 8.82695 3 11.75 3C14.6484 3 17 3.97945 17 5.1875ZM7.39414 7.40508C7.67305 7.38594 7.95742 7.375 8.25 7.375C9.95078 7.375 11.4602 7.71133 12.4199 8.23359C13.098 8.60273 13.5 9.06211 13.5 9.5625C13.5 9.64727 13.4809 9.77852 13.4426 9.88242C13.3168 10.2434 12.9559 10.5742 12.4855 10.8559C12.4828 10.8559 12.4773 10.8586 12.4746 10.8613C12.4664 10.8668 12.4582 10.8695 12.45 10.875C11.493 11.4055 9.96719 11.75 8.25 11.75C6.62031 11.75 5.1618 11.441 4.19875 10.9543C4.14762 10.927 4.09785 10.8777 4.04973 10.875C3.39047 10.5086 3 10.0547 3 9.5625C3 8.61094 4.46098 7.79883 6.5 7.50078C6.78711 7.45703 7.08516 7.42422 7.39414 7.40508ZM13.716 8.10234C14.4898 7.98203 15.198 7.79063 15.7996 7.5418C16.2453 7.35586 16.6582 7.12617 17 6.84453V7.8125C17 8.34023 16.5488 8.82695 15.8023 9.2043C15.4004 9.40664 14.9164 9.57617 14.3695 9.70742C14.3723 9.66094 14.375 9.61172 14.375 9.5625C14.375 8.96367 14.0852 8.47148 13.716 8.10234ZM13.5 12.1875C13.5 12.6797 13.109 13.1336 12.45 13.5C12.4008 13.5027 12.3516 13.552 12.3023 13.5793C11.3371 14.066 9.87969 14.375 8.25 14.375C6.53281 14.375 5.00758 14.0305 4.04973 13.5C3.39047 13.1336 3.00001 12.6797 3.00001 12.1875V11.2195C3.34043 11.5012 3.75523 11.7309 4.20121 11.9168C5.28156 12.368 6.71328 12.625 8.25 12.625C9.78672 12.625 11.2195 12.368 12.2996 11.9168C12.5129 11.8293 12.718 11.7281 12.9121 11.6188C13.0789 11.5258 13.2348 11.4219 13.3824 11.3125C13.4234 11.2824 13.4617 11.2496 13.5 11.2195V12.1875ZM14.375 10.6043C14.8699 10.4676 15.373 10.3445 15.7996 10.1668C16.2453 9.98086 16.6582 9.75117 17 9.46953V10.4375C17 10.7246 16.8633 11.0117 16.5926 11.2824C16.1469 11.7281 15.3621 12.0945 14.3695 12.3324C14.3723 12.2859 14.375 12.2367 14.375 12.1875V10.6043ZM8.25 15.25C9.78672 15.25 11.2195 14.993 12.2996 14.5418C12.7453 14.3559 13.1582 14.1262 13.5 13.8445V14.8125C13.5 16.0211 11.1484 17 8.25 17C5.35047 17 3.00001 16.0211 3.00001 14.8125V13.8445C3.34043 14.1262 3.75523 14.3559 4.20121 14.5418C5.28156 14.993 6.71328 15.25 8.25 15.25Z" fill="#492B7C"/>
</svg>
