<svg width="1415" height="680" viewBox="0 0 1415 680" fill="none" xmlns="http://www.w3.org/2000/svg">
<g clip-path="url(#clip0_212_387)">
<path d="M368.055 247.859C368.055 110.996 479.005 0.0458984 615.868 0.0458984H680.299V432.232C680.299 569.096 569.35 680.046 432.486 680.046H368.055V247.859Z" fill="#FFCF33"/>
<path d="M0.296875 212.174C0.296875 349.038 111.247 459.987 248.11 459.987H312.542V247.859C312.542 110.996 201.592 0.0458984 64.7283 0.0458984H0.296875V212.174Z" fill="#FFCF33"/>
<path d="M312.54 458.182L2.17969 0.0458984H64.7262C201.59 0.0458984 312.54 110.996 312.54 247.859V458.182Z" fill="#FFD755"/>
<path d="M1167.48 367.801C1304.35 367.801 1415.3 478.751 1415.3 615.614V680.046H983.111C846.247 680.046 735.297 569.096 735.297 432.232V367.801H1167.48Z" fill="#4FA58C"/>
<path d="M1324.72 680.045L1113.2 367.8H1167.48C1304.34 367.8 1415.29 478.75 1415.29 615.613V680.045H1324.72Z" fill="#6CB49F"/>
<path d="M1167.48 312.291C1304.35 312.291 1415.3 201.341 1415.3 64.4773V0.0458984H983.111C846.247 0.0458984 735.297 110.996 735.297 247.859V312.291H1167.48Z" fill="#492B7C"/>
<path d="M1075.59 312.291L879.422 22.7143C910.967 8.16294 946.09 0.0458984 983.109 0.0458984H1415.3V64.4773C1415.3 201.341 1304.35 312.291 1167.48 312.291H1075.59Z" fill="#674E92"/>
</g>
<defs>
<clipPath id="clip0_212_387">
<rect width="1415" height="680" fill="white"/>
</clipPath>
</defs>
</svg>
